<svg id="visual" viewBox="0 0 900 600" width="900" height="600" xmlns="http://www.w3.org/2000/svg" xmlns:xlink="http://www.w3.org/1999/xlink" version="1.1"><path d="M0 144L25 136C50 128 100 112 150 113.8C200 115.7 250 135.3 300 133.3C350 131.3 400 107.7 450 108.8C500 110 550 136 600 136.7C650 137.3 700 112.7 750 103.8C800 95 850 102 875 105.5L900 109L900 0L875 0C850 0 800 0 750 0C700 0 650 0 600 0C550 0 500 0 450 0C400 0 350 0 300 0C250 0 200 0 150 0C100 0 50 0 25 0L0 0Z" fill="#c1c1c1" stroke-linecap="round" stroke-linejoin="miter"></path></svg>