<svg id="visual" viewBox="0 0 900 600" width="900" height="600" xmlns="http://www.w3.org/2000/svg" xmlns:xlink="http://www.w3.org/1999/xlink" version="1.1"><path d="M0 156L25 153C50 150 100 144 150 145.2C200 146.3 250 154.7 300 145.5C350 136.3 400 109.7 450 106.3C500 103 550 123 600 129.2C650 135.3 700 127.7 750 131C800 134.3 850 148.7 875 155.8L900 163L900 0L875 0C850 0 800 0 750 0C700 0 650 0 600 0C550 0 500 0 450 0C400 0 350 0 300 0C250 0 200 0 150 0C100 0 50 0 25 0L0 0Z" fill="#c1c1c1" stroke-linecap="round" stroke-linejoin="miter"></path></svg>