<svg id="visual" viewBox="0 0 900 600" width="900" height="600" xmlns="http://www.w3.org/2000/svg" xmlns:xlink="http://www.w3.org/1999/xlink" version="1.1"><path d="M0 157L25 153.3C50 149.7 100 142.3 150 128.7C200 115 250 95 300 95.7C350 96.3 400 117.7 450 122.3C500 127 550 115 600 115.7C650 116.3 700 129.7 750 128.8C800 128 850 113 875 105.5L900 98L900 0L875 0C850 0 800 0 750 0C700 0 650 0 600 0C550 0 500 0 450 0C400 0 350 0 300 0C250 0 200 0 150 0C100 0 50 0 25 0L0 0Z" fill="#c1c1c1" stroke-linecap="round" stroke-linejoin="miter"></path></svg>