<svg id="visual" viewBox="0 0 900 600" width="900" height="600" xmlns="http://www.w3.org/2000/svg" xmlns:xlink="http://www.w3.org/1999/xlink" version="1.1"><path d="M0 138L25 129.5C50 121 100 104 150 98.5C200 93 250 99 300 111.5C350 124 400 143 450 149.7C500 156.3 550 150.7 600 143.7C650 136.7 700 128.3 750 118.7C800 109 850 98 875 92.5L900 87L900 0L875 0C850 0 800 0 750 0C700 0 650 0 600 0C550 0 500 0 450 0C400 0 350 0 300 0C250 0 200 0 150 0C100 0 50 0 25 0L0 0Z" fill="#c1c1c1" stroke-linecap="round" stroke-linejoin="miter"></path></svg>