<svg id="visual" viewBox="0 0 900 600" width="900" height="600" xmlns="http://www.w3.org/2000/svg" xmlns:xlink="http://www.w3.org/1999/xlink" version="1.1"><path d="M0 31L18.8 36C37.7 41 75.3 51 112.8 56C150.3 61 187.7 61 225.2 61C262.7 61 300.3 61 337.8 56C375.3 51 412.7 41 450.2 37C487.7 33 525.3 35 562.8 36C600.3 37 637.7 37 675.2 37C712.7 37 750.3 37 787.8 41C825.3 45 862.7 53 881.3 57L900 61L900 0L881.3 0C862.7 0 825.3 0 787.8 0C750.3 0 712.7 0 675.2 0C637.7 0 600.3 0 562.8 0C525.3 0 487.7 0 450.2 0C412.7 0 375.3 0 337.8 0C300.3 0 262.7 0 225.2 0C187.7 0 150.3 0 112.8 0C75.3 0 37.7 0 18.8 0L0 0Z" fill="#004cbb"></path><path d="M0 67L18.8 72C37.7 77 75.3 87 112.8 92C150.3 97 187.7 97 225.2 102C262.7 107 300.3 117 337.8 118C375.3 119 412.7 111 450.2 105C487.7 99 525.3 95 562.8 97C600.3 99 637.7 107 675.2 105C712.7 103 750.3 91 787.8 90C825.3 89 862.7 99 881.3 104L900 109L900 59L881.3 55C862.7 51 825.3 43 787.8 39C750.3 35 712.7 35 675.2 35C637.7 35 600.3 35 562.8 34C525.3 33 487.7 31 450.2 35C412.7 39 375.3 49 337.8 54C300.3 59 262.7 59 225.2 59C187.7 59 150.3 59 112.8 54C75.3 49 37.7 39 18.8 34L0 29Z" fill="#0055d1"></path><path d="M0 115L18.8 122C37.7 129 75.3 143 112.8 151C150.3 159 187.7 161 225.2 166C262.7 171 300.3 179 337.8 181C375.3 183 412.7 179 450.2 168C487.7 157 525.3 139 562.8 138C600.3 137 637.7 153 675.2 151C712.7 149 750.3 129 787.8 124C825.3 119 862.7 129 881.3 134L900 139L900 107L881.3 102C862.7 97 825.3 87 787.8 88C750.3 89 712.7 101 675.2 103C637.7 105 600.3 97 562.8 95C525.3 93 487.7 97 450.2 103C412.7 109 375.3 117 337.8 116C300.3 115 262.7 105 225.2 100C187.7 95 150.3 95 112.8 90C75.3 85 37.7 75 18.8 70L0 65Z" fill="#005de8"></path><path d="M0 217L18.8 221C37.7 225 75.3 233 112.8 237C150.3 241 187.7 241 225.2 246C262.7 251 300.3 261 337.8 257C375.3 253 412.7 235 450.2 224C487.7 213 525.3 209 562.8 211C600.3 213 637.7 221 675.2 218C712.7 215 750.3 201 787.8 202C825.3 203 862.7 219 881.3 227L900 235L900 137L881.3 132C862.7 127 825.3 117 787.8 122C750.3 127 712.7 147 675.2 149C637.7 151 600.3 135 562.8 136C525.3 137 487.7 155 450.2 166C412.7 177 375.3 181 337.8 179C300.3 177 262.7 169 225.2 164C187.7 159 150.3 157 112.8 149C75.3 141 37.7 127 18.8 120L0 113Z" fill="#0066ff"></path><path d="M0 295L18.8 305C37.7 315 75.3 335 112.8 344C150.3 353 187.7 351 225.2 355C262.7 359 300.3 369 337.8 360C375.3 351 412.7 323 450.2 311C487.7 299 525.3 303 562.8 306C600.3 309 637.7 311 675.2 313C712.7 315 750.3 317 787.8 313C825.3 309 862.7 299 881.3 294L900 289L900 233L881.3 225C862.7 217 825.3 201 787.8 200C750.3 199 712.7 213 675.2 216C637.7 219 600.3 211 562.8 209C525.3 207 487.7 211 450.2 222C412.7 233 375.3 251 337.8 255C300.3 259 262.7 249 225.2 244C187.7 239 150.3 239 112.8 235C75.3 231 37.7 223 18.8 219L0 215Z" fill="#2d77ff"></path><path d="M0 475L18.8 474C37.7 473 75.3 471 112.8 479C150.3 487 187.7 505 225.2 508C262.7 511 300.3 499 337.8 492C375.3 485 412.7 483 450.2 486C487.7 489 525.3 497 562.8 485C600.3 473 637.7 441 675.2 443C712.7 445 750.3 481 787.8 493C825.3 505 862.7 493 881.3 487L900 481L900 287L881.3 292C862.7 297 825.3 307 787.8 311C750.3 315 712.7 313 675.2 311C637.7 309 600.3 307 562.8 304C525.3 301 487.7 297 450.2 309C412.7 321 375.3 349 337.8 358C300.3 367 262.7 357 225.2 353C187.7 349 150.3 351 112.8 342C75.3 333 37.7 313 18.8 303L0 293Z" fill="#4988ff"></path><path d="M0 601L18.8 601C37.7 601 75.3 601 112.8 601C150.3 601 187.7 601 225.2 601C262.7 601 300.3 601 337.8 601C375.3 601 412.7 601 450.2 601C487.7 601 525.3 601 562.8 601C600.3 601 637.7 601 675.2 601C712.7 601 750.3 601 787.8 601C825.3 601 862.7 601 881.3 601L900 601L900 479L881.3 485C862.7 491 825.3 503 787.8 491C750.3 479 712.7 443 675.2 441C637.7 439 600.3 471 562.8 483C525.3 495 487.7 487 450.2 484C412.7 481 375.3 483 337.8 490C300.3 497 262.7 509 225.2 506C187.7 503 150.3 485 112.8 477C75.3 469 37.7 471 18.8 472L0 473Z" fill="#6198ff"></path></svg>